<mxfile host="Electron" modified="2023-10-31T03:36:47.538Z" agent="Mozilla/5.0 (Windows NT 10.0; Win64; x64) AppleWebKit/537.36 (KHTML, like Gecko) draw.io/22.0.3 Chrome/114.0.5735.289 Electron/25.8.4 Safari/537.36" etag="GS4_67Igy5qV6A9_gAPi" version="22.0.3" type="device" pages="4">
  <diagram name="PÃ¡gina-1" id="nmBxr03qDh2JxpgM1YJ7">
    <mxGraphModel dx="435" dy="508" grid="1" gridSize="10" guides="1" tooltips="1" connect="1" arrows="1" fold="1" page="1" pageScale="1" pageWidth="827" pageHeight="1169" math="1" shadow="0">
      <root>
        <mxCell id="0" />
        <mxCell id="1" parent="0" />
        <mxCell id="l501E3IX7fC12ccYxdVG-11" style="edgeStyle=orthogonalEdgeStyle;rounded=0;orthogonalLoop=1;jettySize=auto;html=1;exitX=0.5;exitY=1;exitDx=0;exitDy=0;exitPerimeter=0;entryX=0.5;entryY=0;entryDx=0;entryDy=0;" parent="1" source="RgY3pFYVmskYfipwqH-s-1" target="RgY3pFYVmskYfipwqH-s-2" edge="1">
          <mxGeometry relative="1" as="geometry" />
        </mxCell>
        <mxCell id="RgY3pFYVmskYfipwqH-s-1" value="Leer_Teclado" style="strokeWidth=2;html=1;shape=mxgraph.flowchart.terminator;whiteSpace=wrap;" parent="1" vertex="1">
          <mxGeometry x="245" y="30" width="100" height="60" as="geometry" />
        </mxCell>
        <mxCell id="l501E3IX7fC12ccYxdVG-46" style="edgeStyle=orthogonalEdgeStyle;rounded=0;orthogonalLoop=1;jettySize=auto;html=1;exitX=0.5;exitY=1;exitDx=0;exitDy=0;entryX=0.5;entryY=0;entryDx=0;entryDy=0;" parent="1" source="RgY3pFYVmskYfipwqH-s-2" target="l501E3IX7fC12ccYxdVG-43" edge="1">
          <mxGeometry relative="1" as="geometry" />
        </mxCell>
        <mxCell id="RgY3pFYVmskYfipwqH-s-2" value="R2 \(\leftarrow\) $00&lt;br&gt;Patron \(\leftarrow\) $EF" style="rounded=0;whiteSpace=wrap;html=1;" parent="1" vertex="1">
          <mxGeometry x="219" y="120" width="152" height="60" as="geometry" />
        </mxCell>
        <mxCell id="l501E3IX7fC12ccYxdVG-9" style="edgeStyle=orthogonalEdgeStyle;rounded=0;orthogonalLoop=1;jettySize=auto;html=1;exitX=0.5;exitY=1;exitDx=0;exitDy=0;" parent="1" source="l501E3IX7fC12ccYxdVG-1" target="l501E3IX7fC12ccYxdVG-2" edge="1">
          <mxGeometry relative="1" as="geometry" />
        </mxCell>
        <mxCell id="l501E3IX7fC12ccYxdVG-1" value="PORTA \(\leftarrow\) (Patron)&lt;br&gt;nop&lt;br&gt;nop&lt;br&gt;nop" style="rounded=0;whiteSpace=wrap;html=1;" parent="1" vertex="1">
          <mxGeometry x="235" y="280" width="120" height="70" as="geometry" />
        </mxCell>
        <mxCell id="l501E3IX7fC12ccYxdVG-6" style="edgeStyle=orthogonalEdgeStyle;rounded=0;orthogonalLoop=1;jettySize=auto;html=1;exitX=0.5;exitY=1;exitDx=0;exitDy=0;" parent="1" source="l501E3IX7fC12ccYxdVG-2" target="l501E3IX7fC12ccYxdVG-3" edge="1">
          <mxGeometry relative="1" as="geometry" />
        </mxCell>
        <mxCell id="l501E3IX7fC12ccYxdVG-37" style="edgeStyle=orthogonalEdgeStyle;rounded=0;orthogonalLoop=1;jettySize=auto;html=1;exitX=1;exitY=0.5;exitDx=0;exitDy=0;entryX=0;entryY=0.5;entryDx=0;entryDy=0;" parent="1" source="l501E3IX7fC12ccYxdVG-2" target="l501E3IX7fC12ccYxdVG-13" edge="1">
          <mxGeometry relative="1" as="geometry" />
        </mxCell>
        <mxCell id="l501E3IX7fC12ccYxdVG-40" value="SI" style="edgeLabel;html=1;align=center;verticalAlign=middle;resizable=0;points=[];" parent="l501E3IX7fC12ccYxdVG-37" vertex="1" connectable="0">
          <mxGeometry x="-0.1071" y="-2" relative="1" as="geometry">
            <mxPoint as="offset" />
          </mxGeometry>
        </mxCell>
        <mxCell id="l501E3IX7fC12ccYxdVG-2" value="PORTA.0 = 0" style="shape=hexagon;perimeter=hexagonPerimeter2;whiteSpace=wrap;html=1;fixedSize=1;" parent="1" vertex="1">
          <mxGeometry x="235" y="390" width="120" height="40" as="geometry" />
        </mxCell>
        <mxCell id="l501E3IX7fC12ccYxdVG-7" style="edgeStyle=orthogonalEdgeStyle;rounded=0;orthogonalLoop=1;jettySize=auto;html=1;exitX=0.5;exitY=1;exitDx=0;exitDy=0;entryX=0.5;entryY=0;entryDx=0;entryDy=0;" parent="1" source="l501E3IX7fC12ccYxdVG-3" target="l501E3IX7fC12ccYxdVG-4" edge="1">
          <mxGeometry relative="1" as="geometry" />
        </mxCell>
        <mxCell id="l501E3IX7fC12ccYxdVG-38" style="edgeStyle=orthogonalEdgeStyle;rounded=0;orthogonalLoop=1;jettySize=auto;html=1;exitX=1;exitY=0.5;exitDx=0;exitDy=0;entryX=0;entryY=0.5;entryDx=0;entryDy=0;" parent="1" source="l501E3IX7fC12ccYxdVG-3" target="l501E3IX7fC12ccYxdVG-12" edge="1">
          <mxGeometry relative="1" as="geometry" />
        </mxCell>
        <mxCell id="l501E3IX7fC12ccYxdVG-41" value="SI" style="edgeLabel;html=1;align=center;verticalAlign=middle;resizable=0;points=[];" parent="l501E3IX7fC12ccYxdVG-38" vertex="1" connectable="0">
          <mxGeometry x="-0.1429" y="-1" relative="1" as="geometry">
            <mxPoint as="offset" />
          </mxGeometry>
        </mxCell>
        <mxCell id="l501E3IX7fC12ccYxdVG-3" value="PORTA.1 = 0" style="shape=hexagon;perimeter=hexagonPerimeter2;whiteSpace=wrap;html=1;fixedSize=1;" parent="1" vertex="1">
          <mxGeometry x="235" y="470" width="120" height="40" as="geometry" />
        </mxCell>
        <mxCell id="l501E3IX7fC12ccYxdVG-8" style="edgeStyle=orthogonalEdgeStyle;rounded=0;orthogonalLoop=1;jettySize=auto;html=1;exitX=0.5;exitY=1;exitDx=0;exitDy=0;entryX=0.5;entryY=0;entryDx=0;entryDy=0;" parent="1" source="l501E3IX7fC12ccYxdVG-4" target="l501E3IX7fC12ccYxdVG-5" edge="1">
          <mxGeometry relative="1" as="geometry" />
        </mxCell>
        <mxCell id="l501E3IX7fC12ccYxdVG-39" style="edgeStyle=orthogonalEdgeStyle;rounded=0;orthogonalLoop=1;jettySize=auto;html=1;exitX=1;exitY=0.5;exitDx=0;exitDy=0;entryX=0;entryY=0.5;entryDx=0;entryDy=0;" parent="1" source="l501E3IX7fC12ccYxdVG-4" target="l501E3IX7fC12ccYxdVG-14" edge="1">
          <mxGeometry relative="1" as="geometry" />
        </mxCell>
        <mxCell id="l501E3IX7fC12ccYxdVG-42" value="SI" style="edgeLabel;html=1;align=center;verticalAlign=middle;resizable=0;points=[];" parent="l501E3IX7fC12ccYxdVG-39" vertex="1" connectable="0">
          <mxGeometry x="-0.0357" y="-1" relative="1" as="geometry">
            <mxPoint as="offset" />
          </mxGeometry>
        </mxCell>
        <mxCell id="l501E3IX7fC12ccYxdVG-4" value="PORTA.2 = 0" style="shape=hexagon;perimeter=hexagonPerimeter2;whiteSpace=wrap;html=1;fixedSize=1;" parent="1" vertex="1">
          <mxGeometry x="235" y="550" width="120" height="40" as="geometry" />
        </mxCell>
        <mxCell id="l501E3IX7fC12ccYxdVG-28" style="edgeStyle=orthogonalEdgeStyle;rounded=0;orthogonalLoop=1;jettySize=auto;html=1;exitX=1;exitY=0.5;exitDx=0;exitDy=0;entryX=0;entryY=0.5;entryDx=0;entryDy=0;" parent="1" source="l501E3IX7fC12ccYxdVG-5" target="l501E3IX7fC12ccYxdVG-27" edge="1">
          <mxGeometry relative="1" as="geometry" />
        </mxCell>
        <mxCell id="l501E3IX7fC12ccYxdVG-35" value="SI" style="edgeLabel;html=1;align=center;verticalAlign=middle;resizable=0;points=[];" parent="l501E3IX7fC12ccYxdVG-28" vertex="1" connectable="0">
          <mxGeometry x="-0.1316" y="-1" relative="1" as="geometry">
            <mxPoint as="offset" />
          </mxGeometry>
        </mxCell>
        <mxCell id="l501E3IX7fC12ccYxdVG-36" style="edgeStyle=orthogonalEdgeStyle;rounded=0;orthogonalLoop=1;jettySize=auto;html=1;exitX=0.5;exitY=1;exitDx=0;exitDy=0;" parent="1" source="l501E3IX7fC12ccYxdVG-5" target="l501E3IX7fC12ccYxdVG-34" edge="1">
          <mxGeometry relative="1" as="geometry" />
        </mxCell>
        <mxCell id="l501E3IX7fC12ccYxdVG-5" value="(R2) = 9" style="shape=hexagon;perimeter=hexagonPerimeter2;whiteSpace=wrap;html=1;fixedSize=1;" parent="1" vertex="1">
          <mxGeometry x="235" y="630" width="120" height="40" as="geometry" />
        </mxCell>
        <mxCell id="l501E3IX7fC12ccYxdVG-23" style="edgeStyle=orthogonalEdgeStyle;rounded=0;orthogonalLoop=1;jettySize=auto;html=1;exitX=1;exitY=0.5;exitDx=0;exitDy=0;entryX=0;entryY=0.5;entryDx=0;entryDy=0;" parent="1" source="l501E3IX7fC12ccYxdVG-12" target="l501E3IX7fC12ccYxdVG-20" edge="1">
          <mxGeometry relative="1" as="geometry" />
        </mxCell>
        <mxCell id="l501E3IX7fC12ccYxdVG-12" value="K \(\leftarrow\) Teclas&lt;br&gt;R2 \(\leftarrow\) (R2) + 1&lt;br&gt;Tecla \(\leftarrow\) ((K) + (R2))" style="rounded=0;whiteSpace=wrap;html=1;" parent="1" vertex="1">
          <mxGeometry x="411" y="465" width="180" height="50" as="geometry" />
        </mxCell>
        <mxCell id="l501E3IX7fC12ccYxdVG-22" style="edgeStyle=orthogonalEdgeStyle;rounded=0;orthogonalLoop=1;jettySize=auto;html=1;exitX=1;exitY=0.5;exitDx=0;exitDy=0;entryX=0.5;entryY=0;entryDx=0;entryDy=0;" parent="1" source="l501E3IX7fC12ccYxdVG-13" target="l501E3IX7fC12ccYxdVG-20" edge="1">
          <mxGeometry relative="1" as="geometry" />
        </mxCell>
        <mxCell id="l501E3IX7fC12ccYxdVG-13" value="K \(\leftarrow\) Teclas&lt;br&gt;Tecla \(\leftarrow\) ((K) + (R2))" style="rounded=0;whiteSpace=wrap;html=1;" parent="1" vertex="1">
          <mxGeometry x="411" y="385" width="180" height="50" as="geometry" />
        </mxCell>
        <mxCell id="l501E3IX7fC12ccYxdVG-24" style="edgeStyle=orthogonalEdgeStyle;rounded=0;orthogonalLoop=1;jettySize=auto;html=1;exitX=1;exitY=0.5;exitDx=0;exitDy=0;entryX=0;entryY=0.5;entryDx=0;entryDy=0;" parent="1" source="l501E3IX7fC12ccYxdVG-14" target="l501E3IX7fC12ccYxdVG-21" edge="1">
          <mxGeometry relative="1" as="geometry" />
        </mxCell>
        <mxCell id="l501E3IX7fC12ccYxdVG-14" value="K \(\leftarrow\) Teclas&lt;br&gt;R2 \(\leftarrow\) (R2) + 2&lt;br&gt;Tecla \(\leftarrow\) ((K) + (R2))" style="rounded=0;whiteSpace=wrap;html=1;" parent="1" vertex="1">
          <mxGeometry x="411" y="545" width="180" height="50" as="geometry" />
        </mxCell>
        <mxCell id="l501E3IX7fC12ccYxdVG-16" value="RETURN" style="strokeWidth=2;html=1;shape=mxgraph.flowchart.terminator;whiteSpace=wrap;" parent="1" vertex="1">
          <mxGeometry x="541" y="730" width="100" height="60" as="geometry" />
        </mxCell>
        <mxCell id="l501E3IX7fC12ccYxdVG-25" style="edgeStyle=orthogonalEdgeStyle;rounded=0;orthogonalLoop=1;jettySize=auto;html=1;exitX=0.5;exitY=1;exitDx=0;exitDy=0;" parent="1" source="l501E3IX7fC12ccYxdVG-20" target="l501E3IX7fC12ccYxdVG-21" edge="1">
          <mxGeometry relative="1" as="geometry" />
        </mxCell>
        <mxCell id="l501E3IX7fC12ccYxdVG-20" value="" style="ellipse;whiteSpace=wrap;html=1;aspect=fixed;" parent="1" vertex="1">
          <mxGeometry x="641" y="475" width="30" height="30" as="geometry" />
        </mxCell>
        <mxCell id="l501E3IX7fC12ccYxdVG-32" style="edgeStyle=orthogonalEdgeStyle;rounded=0;orthogonalLoop=1;jettySize=auto;html=1;exitX=0.5;exitY=1;exitDx=0;exitDy=0;entryX=0.5;entryY=0;entryDx=0;entryDy=0;" parent="1" source="l501E3IX7fC12ccYxdVG-21" target="l501E3IX7fC12ccYxdVG-29" edge="1">
          <mxGeometry relative="1" as="geometry" />
        </mxCell>
        <mxCell id="l501E3IX7fC12ccYxdVG-21" value="" style="ellipse;whiteSpace=wrap;html=1;aspect=fixed;" parent="1" vertex="1">
          <mxGeometry x="641" y="555" width="30" height="30" as="geometry" />
        </mxCell>
        <mxCell id="l501E3IX7fC12ccYxdVG-31" style="edgeStyle=orthogonalEdgeStyle;rounded=0;orthogonalLoop=1;jettySize=auto;html=1;exitX=1;exitY=0.5;exitDx=0;exitDy=0;entryX=0;entryY=0.5;entryDx=0;entryDy=0;" parent="1" source="l501E3IX7fC12ccYxdVG-27" target="l501E3IX7fC12ccYxdVG-29" edge="1">
          <mxGeometry relative="1" as="geometry" />
        </mxCell>
        <mxCell id="l501E3IX7fC12ccYxdVG-27" value="Tecla \(\leftarrow\) $FF" style="rounded=0;whiteSpace=wrap;html=1;" parent="1" vertex="1">
          <mxGeometry x="431" y="630" width="120" height="40" as="geometry" />
        </mxCell>
        <mxCell id="l501E3IX7fC12ccYxdVG-29" value="" style="ellipse;whiteSpace=wrap;html=1;aspect=fixed;" parent="1" vertex="1">
          <mxGeometry x="641" y="635" width="30" height="30" as="geometry" />
        </mxCell>
        <mxCell id="l501E3IX7fC12ccYxdVG-33" style="edgeStyle=orthogonalEdgeStyle;rounded=0;orthogonalLoop=1;jettySize=auto;html=1;exitX=0.5;exitY=1;exitDx=0;exitDy=0;entryX=0.5;entryY=0;entryDx=0;entryDy=0;entryPerimeter=0;" parent="1" source="l501E3IX7fC12ccYxdVG-29" target="l501E3IX7fC12ccYxdVG-16" edge="1">
          <mxGeometry relative="1" as="geometry" />
        </mxCell>
        <mxCell id="l501E3IX7fC12ccYxdVG-44" style="edgeStyle=orthogonalEdgeStyle;rounded=0;orthogonalLoop=1;jettySize=auto;html=1;exitX=0;exitY=0.5;exitDx=0;exitDy=0;entryX=0;entryY=0.5;entryDx=0;entryDy=0;" parent="1" source="l501E3IX7fC12ccYxdVG-34" target="l501E3IX7fC12ccYxdVG-43" edge="1">
          <mxGeometry relative="1" as="geometry" />
        </mxCell>
        <mxCell id="l501E3IX7fC12ccYxdVG-34" value="C \(\leftarrow\) Patron \(\leftarrow\) C&lt;br&gt;R2 \(\leftarrow\) (R2) + 3" style="rounded=0;whiteSpace=wrap;html=1;" parent="1" vertex="1">
          <mxGeometry x="230" y="720" width="130" height="50" as="geometry" />
        </mxCell>
        <mxCell id="l501E3IX7fC12ccYxdVG-45" style="edgeStyle=orthogonalEdgeStyle;rounded=0;orthogonalLoop=1;jettySize=auto;html=1;exitX=0.5;exitY=1;exitDx=0;exitDy=0;entryX=0.5;entryY=0;entryDx=0;entryDy=0;" parent="1" source="l501E3IX7fC12ccYxdVG-43" target="l501E3IX7fC12ccYxdVG-1" edge="1">
          <mxGeometry relative="1" as="geometry" />
        </mxCell>
        <mxCell id="l501E3IX7fC12ccYxdVG-43" value="" style="ellipse;whiteSpace=wrap;html=1;aspect=fixed;" parent="1" vertex="1">
          <mxGeometry x="280" y="220" width="30" height="30" as="geometry" />
        </mxCell>
      </root>
    </mxGraphModel>
  </diagram>
  <diagram id="EVBCEjNW6X6CIgVfoTZ-" name="PÃ¡gina-2">
    <mxGraphModel dx="588" dy="499" grid="1" gridSize="10" guides="1" tooltips="1" connect="1" arrows="1" fold="1" page="1" pageScale="1" pageWidth="827" pageHeight="1169" math="1" shadow="0">
      <root>
        <mxCell id="0" />
        <mxCell id="1" parent="0" />
        <mxCell id="DRoFqL7xSZ4gvgHyw7jW-3" style="edgeStyle=orthogonalEdgeStyle;rounded=0;orthogonalLoop=1;jettySize=auto;html=1;exitX=0.5;exitY=1;exitDx=0;exitDy=0;exitPerimeter=0;entryX=0.5;entryY=0;entryDx=0;entryDy=0;" edge="1" parent="1" source="DRoFqL7xSZ4gvgHyw7jW-1" target="DRoFqL7xSZ4gvgHyw7jW-2">
          <mxGeometry relative="1" as="geometry" />
        </mxCell>
        <mxCell id="DRoFqL7xSZ4gvgHyw7jW-1" value="Teclado_Est1" style="strokeWidth=2;html=1;shape=mxgraph.flowchart.terminator;whiteSpace=wrap;" vertex="1" parent="1">
          <mxGeometry x="65" y="30" width="100" height="60" as="geometry" />
        </mxCell>
        <mxCell id="DRoFqL7xSZ4gvgHyw7jW-6" style="edgeStyle=orthogonalEdgeStyle;rounded=0;orthogonalLoop=1;jettySize=auto;html=1;exitX=0.5;exitY=1;exitDx=0;exitDy=0;entryX=0.5;entryY=0;entryDx=0;entryDy=0;" edge="1" parent="1" source="DRoFqL7xSZ4gvgHyw7jW-2" target="DRoFqL7xSZ4gvgHyw7jW-4">
          <mxGeometry relative="1" as="geometry" />
        </mxCell>
        <mxCell id="DRoFqL7xSZ4gvgHyw7jW-2" value="Leer_Teclado" style="shape=process;whiteSpace=wrap;html=1;backgroundOutline=1;" vertex="1" parent="1">
          <mxGeometry x="55" y="130" width="120" height="60" as="geometry" />
        </mxCell>
        <mxCell id="DRoFqL7xSZ4gvgHyw7jW-7" style="edgeStyle=orthogonalEdgeStyle;rounded=0;orthogonalLoop=1;jettySize=auto;html=1;exitX=0.5;exitY=1;exitDx=0;exitDy=0;entryX=0.5;entryY=0;entryDx=0;entryDy=0;" edge="1" parent="1" source="DRoFqL7xSZ4gvgHyw7jW-4" target="DRoFqL7xSZ4gvgHyw7jW-5">
          <mxGeometry relative="1" as="geometry" />
        </mxCell>
        <mxCell id="DRoFqL7xSZ4gvgHyw7jW-4" value="R1 \(\leftarrow\) $FF" style="whiteSpace=wrap;html=1;" vertex="1" parent="1">
          <mxGeometry x="55" y="230" width="120" height="60" as="geometry" />
        </mxCell>
        <mxCell id="DRoFqL7xSZ4gvgHyw7jW-13" style="edgeStyle=orthogonalEdgeStyle;rounded=0;orthogonalLoop=1;jettySize=auto;html=1;exitX=0.5;exitY=1;exitDx=0;exitDy=0;entryX=0.5;entryY=0;entryDx=0;entryDy=0;" edge="1" parent="1" source="DRoFqL7xSZ4gvgHyw7jW-5" target="DRoFqL7xSZ4gvgHyw7jW-12">
          <mxGeometry relative="1" as="geometry" />
        </mxCell>
        <mxCell id="DRoFqL7xSZ4gvgHyw7jW-5" value="(R1) = (Tecla)" style="shape=hexagon;perimeter=hexagonPerimeter2;whiteSpace=wrap;html=1;fixedSize=1;" vertex="1" parent="1">
          <mxGeometry x="60" y="330" width="110" height="50" as="geometry" />
        </mxCell>
        <mxCell id="DRoFqL7xSZ4gvgHyw7jW-8" value="RETURN" style="strokeWidth=2;html=1;shape=mxgraph.flowchart.terminator;whiteSpace=wrap;" vertex="1" parent="1">
          <mxGeometry x="220" y="325" width="100" height="60" as="geometry" />
        </mxCell>
        <mxCell id="DRoFqL7xSZ4gvgHyw7jW-12" value="Timer_Reb_TCL \(\leftarrow\) tSupRebTCL&lt;br&gt;Est_Pres_TCL \(\leftarrow\) Teclado_Est2&lt;br&gt;Tecla_IN \(\leftarrow\) (Tecla)" style="whiteSpace=wrap;html=1;" vertex="1" parent="1">
          <mxGeometry x="10" y="420" width="210" height="60" as="geometry" />
        </mxCell>
        <mxCell id="DRoFqL7xSZ4gvgHyw7jW-14" style="edgeStyle=orthogonalEdgeStyle;rounded=0;orthogonalLoop=1;jettySize=auto;html=1;exitX=1;exitY=0.5;exitDx=0;exitDy=0;entryX=0.5;entryY=1;entryDx=0;entryDy=0;entryPerimeter=0;" edge="1" parent="1" source="DRoFqL7xSZ4gvgHyw7jW-12" target="DRoFqL7xSZ4gvgHyw7jW-8">
          <mxGeometry relative="1" as="geometry">
            <mxPoint x="315" y="385" as="targetPoint" />
          </mxGeometry>
        </mxCell>
        <mxCell id="DRoFqL7xSZ4gvgHyw7jW-36" style="edgeStyle=orthogonalEdgeStyle;rounded=0;orthogonalLoop=1;jettySize=auto;html=1;exitX=0.5;exitY=1;exitDx=0;exitDy=0;exitPerimeter=0;" edge="1" parent="1" source="DRoFqL7xSZ4gvgHyw7jW-15" target="DRoFqL7xSZ4gvgHyw7jW-17">
          <mxGeometry relative="1" as="geometry" />
        </mxCell>
        <mxCell id="DRoFqL7xSZ4gvgHyw7jW-15" value="Teclado_Est2" style="strokeWidth=2;html=1;shape=mxgraph.flowchart.terminator;whiteSpace=wrap;" vertex="1" parent="1">
          <mxGeometry x="460" y="30" width="100" height="60" as="geometry" />
        </mxCell>
        <mxCell id="DRoFqL7xSZ4gvgHyw7jW-23" style="edgeStyle=orthogonalEdgeStyle;rounded=0;orthogonalLoop=1;jettySize=auto;html=1;exitX=0.5;exitY=1;exitDx=0;exitDy=0;entryX=0.5;entryY=0;entryDx=0;entryDy=0;" edge="1" parent="1" source="DRoFqL7xSZ4gvgHyw7jW-17" target="DRoFqL7xSZ4gvgHyw7jW-22">
          <mxGeometry relative="1" as="geometry" />
        </mxCell>
        <mxCell id="DRoFqL7xSZ4gvgHyw7jW-17" value="Timer_Reb_TCL = 0" style="shape=hexagon;perimeter=hexagonPerimeter2;whiteSpace=wrap;html=1;fixedSize=1;" vertex="1" parent="1">
          <mxGeometry x="440" y="130" width="140" height="60" as="geometry" />
        </mxCell>
        <mxCell id="DRoFqL7xSZ4gvgHyw7jW-35" style="edgeStyle=orthogonalEdgeStyle;rounded=0;orthogonalLoop=1;jettySize=auto;html=1;exitX=0.5;exitY=1;exitDx=0;exitDy=0;" edge="1" parent="1" source="DRoFqL7xSZ4gvgHyw7jW-18" target="DRoFqL7xSZ4gvgHyw7jW-24">
          <mxGeometry relative="1" as="geometry" />
        </mxCell>
        <mxCell id="DRoFqL7xSZ4gvgHyw7jW-18" value="R1 \(\leftarrow\) (Tecla_IN)" style="whiteSpace=wrap;html=1;" vertex="1" parent="1">
          <mxGeometry x="450" y="340" width="120" height="60" as="geometry" />
        </mxCell>
        <mxCell id="DRoFqL7xSZ4gvgHyw7jW-19" value="RETURN" style="strokeWidth=2;html=1;shape=mxgraph.flowchart.terminator;whiteSpace=wrap;" vertex="1" parent="1">
          <mxGeometry x="640" y="130" width="100" height="60" as="geometry" />
        </mxCell>
        <mxCell id="DRoFqL7xSZ4gvgHyw7jW-20" style="edgeStyle=orthogonalEdgeStyle;rounded=0;orthogonalLoop=1;jettySize=auto;html=1;exitX=1;exitY=0.5;exitDx=0;exitDy=0;entryX=0;entryY=0.5;entryDx=0;entryDy=0;entryPerimeter=0;" edge="1" parent="1" source="DRoFqL7xSZ4gvgHyw7jW-17" target="DRoFqL7xSZ4gvgHyw7jW-19">
          <mxGeometry relative="1" as="geometry" />
        </mxCell>
        <mxCell id="DRoFqL7xSZ4gvgHyw7jW-21" value="NO" style="edgeLabel;html=1;align=center;verticalAlign=middle;resizable=0;points=[];" vertex="1" connectable="0" parent="DRoFqL7xSZ4gvgHyw7jW-20">
          <mxGeometry x="-0.0028" relative="1" as="geometry">
            <mxPoint as="offset" />
          </mxGeometry>
        </mxCell>
        <mxCell id="DRoFqL7xSZ4gvgHyw7jW-34" style="edgeStyle=orthogonalEdgeStyle;rounded=0;orthogonalLoop=1;jettySize=auto;html=1;exitX=0.5;exitY=1;exitDx=0;exitDy=0;entryX=0.5;entryY=0;entryDx=0;entryDy=0;" edge="1" parent="1" source="DRoFqL7xSZ4gvgHyw7jW-22" target="DRoFqL7xSZ4gvgHyw7jW-18">
          <mxGeometry relative="1" as="geometry" />
        </mxCell>
        <mxCell id="DRoFqL7xSZ4gvgHyw7jW-22" value="Leer_Teclado" style="shape=process;whiteSpace=wrap;html=1;backgroundOutline=1;" vertex="1" parent="1">
          <mxGeometry x="450" y="230" width="120" height="60" as="geometry" />
        </mxCell>
        <mxCell id="DRoFqL7xSZ4gvgHyw7jW-28" style="edgeStyle=orthogonalEdgeStyle;rounded=0;orthogonalLoop=1;jettySize=auto;html=1;exitX=0.5;exitY=1;exitDx=0;exitDy=0;entryX=0.5;entryY=1;entryDx=0;entryDy=0;" edge="1" parent="1" source="DRoFqL7xSZ4gvgHyw7jW-24" target="DRoFqL7xSZ4gvgHyw7jW-26">
          <mxGeometry relative="1" as="geometry">
            <Array as="points">
              <mxPoint x="510" y="540" />
              <mxPoint x="690" y="540" />
            </Array>
          </mxGeometry>
        </mxCell>
        <mxCell id="DRoFqL7xSZ4gvgHyw7jW-32" value="SI" style="edgeLabel;html=1;align=center;verticalAlign=middle;resizable=0;points=[];" vertex="1" connectable="0" parent="DRoFqL7xSZ4gvgHyw7jW-28">
          <mxGeometry x="0.0093" y="-1" relative="1" as="geometry">
            <mxPoint as="offset" />
          </mxGeometry>
        </mxCell>
        <mxCell id="DRoFqL7xSZ4gvgHyw7jW-31" style="edgeStyle=orthogonalEdgeStyle;rounded=0;orthogonalLoop=1;jettySize=auto;html=1;exitX=0;exitY=0.5;exitDx=0;exitDy=0;entryX=0;entryY=0.5;entryDx=0;entryDy=0;" edge="1" parent="1" source="DRoFqL7xSZ4gvgHyw7jW-24" target="DRoFqL7xSZ4gvgHyw7jW-27">
          <mxGeometry relative="1" as="geometry">
            <Array as="points">
              <mxPoint x="370" y="465" />
              <mxPoint x="370" y="615" />
            </Array>
          </mxGeometry>
        </mxCell>
        <mxCell id="DRoFqL7xSZ4gvgHyw7jW-33" value="NO" style="edgeLabel;html=1;align=center;verticalAlign=middle;resizable=0;points=[];" vertex="1" connectable="0" parent="DRoFqL7xSZ4gvgHyw7jW-31">
          <mxGeometry x="0.08" relative="1" as="geometry">
            <mxPoint y="-1" as="offset" />
          </mxGeometry>
        </mxCell>
        <mxCell id="DRoFqL7xSZ4gvgHyw7jW-24" value="(R1) = (Tecla)" style="shape=hexagon;perimeter=hexagonPerimeter2;whiteSpace=wrap;html=1;fixedSize=1;" vertex="1" parent="1">
          <mxGeometry x="450" y="440" width="120" height="50" as="geometry" />
        </mxCell>
        <mxCell id="DRoFqL7xSZ4gvgHyw7jW-29" style="edgeStyle=orthogonalEdgeStyle;rounded=0;orthogonalLoop=1;jettySize=auto;html=1;exitX=0.5;exitY=0;exitDx=0;exitDy=0;" edge="1" parent="1" source="DRoFqL7xSZ4gvgHyw7jW-26" target="DRoFqL7xSZ4gvgHyw7jW-19">
          <mxGeometry relative="1" as="geometry" />
        </mxCell>
        <mxCell id="DRoFqL7xSZ4gvgHyw7jW-26" value="Est_Pres_TCL \(\leftarrow\) Teclado_Est3" style="whiteSpace=wrap;html=1;" vertex="1" parent="1">
          <mxGeometry x="590" y="435" width="200" height="60" as="geometry" />
        </mxCell>
        <mxCell id="DRoFqL7xSZ4gvgHyw7jW-27" value="Est_Pres_TCL \(\leftarrow\) Teclado_Est1" style="whiteSpace=wrap;html=1;" vertex="1" parent="1">
          <mxGeometry x="410" y="585" width="200" height="60" as="geometry" />
        </mxCell>
        <mxCell id="DRoFqL7xSZ4gvgHyw7jW-37" style="edgeStyle=orthogonalEdgeStyle;rounded=0;orthogonalLoop=1;jettySize=auto;html=1;exitX=1;exitY=0.5;exitDx=0;exitDy=0;entryX=1;entryY=0.5;entryDx=0;entryDy=0;entryPerimeter=0;" edge="1" parent="1" source="DRoFqL7xSZ4gvgHyw7jW-27" target="DRoFqL7xSZ4gvgHyw7jW-19">
          <mxGeometry relative="1" as="geometry">
            <Array as="points">
              <mxPoint x="810" y="615" />
              <mxPoint x="810" y="160" />
            </Array>
          </mxGeometry>
        </mxCell>
        <mxCell id="DRoFqL7xSZ4gvgHyw7jW-38" style="edgeStyle=orthogonalEdgeStyle;rounded=0;orthogonalLoop=1;jettySize=auto;html=1;exitX=1;exitY=0.5;exitDx=0;exitDy=0;entryX=0;entryY=0.5;entryDx=0;entryDy=0;entryPerimeter=0;" edge="1" parent="1" source="DRoFqL7xSZ4gvgHyw7jW-5" target="DRoFqL7xSZ4gvgHyw7jW-8">
          <mxGeometry relative="1" as="geometry" />
        </mxCell>
        <mxCell id="DRoFqL7xSZ4gvgHyw7jW-40" value="SI" style="edgeLabel;html=1;align=center;verticalAlign=middle;resizable=0;points=[];" vertex="1" connectable="0" parent="DRoFqL7xSZ4gvgHyw7jW-38">
          <mxGeometry x="-0.0267" y="-1" relative="1" as="geometry">
            <mxPoint as="offset" />
          </mxGeometry>
        </mxCell>
        <mxCell id="DRoFqL7xSZ4gvgHyw7jW-43" style="edgeStyle=orthogonalEdgeStyle;rounded=0;orthogonalLoop=1;jettySize=auto;html=1;exitX=0.5;exitY=1;exitDx=0;exitDy=0;exitPerimeter=0;entryX=0.5;entryY=0;entryDx=0;entryDy=0;" edge="1" parent="1" source="DRoFqL7xSZ4gvgHyw7jW-41" target="DRoFqL7xSZ4gvgHyw7jW-42">
          <mxGeometry relative="1" as="geometry" />
        </mxCell>
        <mxCell id="DRoFqL7xSZ4gvgHyw7jW-41" value="Teclado_Est3" style="strokeWidth=2;html=1;shape=mxgraph.flowchart.terminator;whiteSpace=wrap;" vertex="1" parent="1">
          <mxGeometry x="165" y="620" width="100" height="60" as="geometry" />
        </mxCell>
        <mxCell id="DRoFqL7xSZ4gvgHyw7jW-47" style="edgeStyle=orthogonalEdgeStyle;rounded=0;orthogonalLoop=1;jettySize=auto;html=1;exitX=0.5;exitY=1;exitDx=0;exitDy=0;entryX=0.5;entryY=0;entryDx=0;entryDy=0;" edge="1" parent="1" source="DRoFqL7xSZ4gvgHyw7jW-42" target="DRoFqL7xSZ4gvgHyw7jW-45">
          <mxGeometry relative="1" as="geometry" />
        </mxCell>
        <mxCell id="DRoFqL7xSZ4gvgHyw7jW-42" value="Leer_Teclado" style="shape=process;whiteSpace=wrap;html=1;backgroundOutline=1;" vertex="1" parent="1">
          <mxGeometry x="155" y="720" width="120" height="60" as="geometry" />
        </mxCell>
        <mxCell id="DRoFqL7xSZ4gvgHyw7jW-44" style="edgeStyle=orthogonalEdgeStyle;rounded=0;orthogonalLoop=1;jettySize=auto;html=1;exitX=0.5;exitY=1;exitDx=0;exitDy=0;" edge="1" parent="1" source="DRoFqL7xSZ4gvgHyw7jW-45" target="DRoFqL7xSZ4gvgHyw7jW-46">
          <mxGeometry relative="1" as="geometry" />
        </mxCell>
        <mxCell id="DRoFqL7xSZ4gvgHyw7jW-45" value="R1 \(\leftarrow\) (Tecla_IN)" style="whiteSpace=wrap;html=1;" vertex="1" parent="1">
          <mxGeometry x="155" y="830" width="120" height="60" as="geometry" />
        </mxCell>
        <mxCell id="DRoFqL7xSZ4gvgHyw7jW-49" style="edgeStyle=orthogonalEdgeStyle;rounded=0;orthogonalLoop=1;jettySize=auto;html=1;exitX=1;exitY=0.5;exitDx=0;exitDy=0;entryX=0;entryY=0.5;entryDx=0;entryDy=0;" edge="1" parent="1" source="DRoFqL7xSZ4gvgHyw7jW-46" target="DRoFqL7xSZ4gvgHyw7jW-48">
          <mxGeometry relative="1" as="geometry" />
        </mxCell>
        <mxCell id="DRoFqL7xSZ4gvgHyw7jW-52" value="SI" style="edgeLabel;html=1;align=center;verticalAlign=middle;resizable=0;points=[];" vertex="1" connectable="0" parent="DRoFqL7xSZ4gvgHyw7jW-49">
          <mxGeometry x="-0.0696" y="-3" relative="1" as="geometry">
            <mxPoint as="offset" />
          </mxGeometry>
        </mxCell>
        <mxCell id="DRoFqL7xSZ4gvgHyw7jW-54" style="edgeStyle=orthogonalEdgeStyle;rounded=0;orthogonalLoop=1;jettySize=auto;html=1;exitX=0.5;exitY=1;exitDx=0;exitDy=0;entryX=0.5;entryY=0;entryDx=0;entryDy=0;" edge="1" parent="1" source="DRoFqL7xSZ4gvgHyw7jW-46" target="DRoFqL7xSZ4gvgHyw7jW-50">
          <mxGeometry relative="1" as="geometry" />
        </mxCell>
        <mxCell id="DRoFqL7xSZ4gvgHyw7jW-46" value="(R1) = (Tecla)" style="shape=hexagon;perimeter=hexagonPerimeter2;whiteSpace=wrap;html=1;fixedSize=1;" vertex="1" parent="1">
          <mxGeometry x="155" y="930" width="120" height="50" as="geometry" />
        </mxCell>
        <mxCell id="DRoFqL7xSZ4gvgHyw7jW-53" style="edgeStyle=orthogonalEdgeStyle;rounded=0;orthogonalLoop=1;jettySize=auto;html=1;exitX=0.5;exitY=0;exitDx=0;exitDy=0;" edge="1" parent="1" source="DRoFqL7xSZ4gvgHyw7jW-48" target="DRoFqL7xSZ4gvgHyw7jW-51">
          <mxGeometry relative="1" as="geometry" />
        </mxCell>
        <mxCell id="DRoFqL7xSZ4gvgHyw7jW-48" value="Est_Pres_TCL \(\leftarrow\) Teclado_Est3" style="whiteSpace=wrap;html=1;" vertex="1" parent="1">
          <mxGeometry x="350" y="925" width="200" height="60" as="geometry" />
        </mxCell>
        <mxCell id="DRoFqL7xSZ4gvgHyw7jW-56" style="edgeStyle=orthogonalEdgeStyle;rounded=0;orthogonalLoop=1;jettySize=auto;html=1;exitX=1;exitY=0.5;exitDx=0;exitDy=0;entryX=0;entryY=0.5;entryDx=0;entryDy=0;" edge="1" parent="1" source="DRoFqL7xSZ4gvgHyw7jW-50" target="DRoFqL7xSZ4gvgHyw7jW-55">
          <mxGeometry relative="1" as="geometry" />
        </mxCell>
        <mxCell id="DRoFqL7xSZ4gvgHyw7jW-50" value="Est_Pres_TCL \(\leftarrow\) Teclado_Est4" style="whiteSpace=wrap;html=1;" vertex="1" parent="1">
          <mxGeometry x="115" y="1030" width="200" height="60" as="geometry" />
        </mxCell>
        <mxCell id="DRoFqL7xSZ4gvgHyw7jW-51" value="RETURN" style="strokeWidth=2;html=1;shape=mxgraph.flowchart.terminator;whiteSpace=wrap;" vertex="1" parent="1">
          <mxGeometry x="400" y="760" width="100" height="60" as="geometry" />
        </mxCell>
        <mxCell id="DRoFqL7xSZ4gvgHyw7jW-55" value="Tecla \(\leftarrow\) (Tecla_IN)" style="whiteSpace=wrap;html=1;" vertex="1" parent="1">
          <mxGeometry x="400" y="1030" width="120" height="60" as="geometry" />
        </mxCell>
        <mxCell id="DRoFqL7xSZ4gvgHyw7jW-57" style="edgeStyle=orthogonalEdgeStyle;rounded=0;orthogonalLoop=1;jettySize=auto;html=1;exitX=1;exitY=0.5;exitDx=0;exitDy=0;entryX=1;entryY=0.5;entryDx=0;entryDy=0;entryPerimeter=0;" edge="1" parent="1" source="DRoFqL7xSZ4gvgHyw7jW-55" target="DRoFqL7xSZ4gvgHyw7jW-51">
          <mxGeometry relative="1" as="geometry">
            <Array as="points">
              <mxPoint x="600" y="1060" />
              <mxPoint x="600" y="790" />
            </Array>
          </mxGeometry>
        </mxCell>
      </root>
    </mxGraphModel>
  </diagram>
  <diagram id="kIlxrGGvUm-7r9SQVX3x" name="PÃ¡gina-3">
    <mxGraphModel dx="647" dy="549" grid="1" gridSize="10" guides="1" tooltips="1" connect="1" arrows="1" fold="1" page="1" pageScale="1" pageWidth="827" pageHeight="1169" math="1" shadow="0">
      <root>
        <mxCell id="0" />
        <mxCell id="1" parent="0" />
        <mxCell id="Yu8r70A0D8Q08c6l1hrP-39" style="edgeStyle=orthogonalEdgeStyle;rounded=0;orthogonalLoop=1;jettySize=auto;html=1;exitX=0.5;exitY=1;exitDx=0;exitDy=0;exitPerimeter=0;entryX=0.5;entryY=0;entryDx=0;entryDy=0;" parent="1" source="AFGi6GBY8aGqDruUX6kk-1" target="Yu8r70A0D8Q08c6l1hrP-18" edge="1">
          <mxGeometry relative="1" as="geometry" />
        </mxCell>
        <mxCell id="AFGi6GBY8aGqDruUX6kk-1" value="Teclado_Est4" style="strokeWidth=2;html=1;shape=mxgraph.flowchart.terminator;whiteSpace=wrap;" parent="1" vertex="1">
          <mxGeometry x="364" y="20" width="100" height="60" as="geometry" />
        </mxCell>
        <mxCell id="AFGi6GBY8aGqDruUX6kk-2" value="RETURN" style="strokeWidth=2;html=1;shape=mxgraph.flowchart.terminator;whiteSpace=wrap;" parent="1" vertex="1">
          <mxGeometry x="350" y="1100" width="100" height="60" as="geometry" />
        </mxCell>
        <mxCell id="AFGi6GBY8aGqDruUX6kk-3" value="Est_Pres_TCL \(\leftarrow\) Teclado_Est1&lt;br&gt;Tecla \(\leftarrow\) (Tecla) \(\cdot\) \(\overline{$FF}\)&lt;br&gt;Tecla_IN \(\leftarrow\) (Tecla_IN) \(\cdot\) \(\overline{$FF}\)" style="whiteSpace=wrap;html=1;" parent="1" vertex="1">
          <mxGeometry x="275" y="1010" width="250" height="70" as="geometry" />
        </mxCell>
        <mxCell id="Yu8r70A0D8Q08c6l1hrP-1" style="edgeStyle=orthogonalEdgeStyle;rounded=0;orthogonalLoop=1;jettySize=auto;html=1;exitX=0.5;exitY=1;exitDx=0;exitDy=0;entryX=0.5;entryY=0;entryDx=0;entryDy=0;entryPerimeter=0;" parent="1" source="AFGi6GBY8aGqDruUX6kk-3" target="AFGi6GBY8aGqDruUX6kk-2" edge="1">
          <mxGeometry relative="1" as="geometry" />
        </mxCell>
        <mxCell id="Yu8r70A0D8Q08c6l1hrP-8" style="edgeStyle=orthogonalEdgeStyle;rounded=0;orthogonalLoop=1;jettySize=auto;html=1;exitX=1;exitY=0.5;exitDx=0;exitDy=0;entryX=0;entryY=0.5;entryDx=0;entryDy=0;" parent="1" source="Yu8r70A0D8Q08c6l1hrP-2" target="Yu8r70A0D8Q08c6l1hrP-6" edge="1">
          <mxGeometry relative="1" as="geometry" />
        </mxCell>
        <mxCell id="Yu8r70A0D8Q08c6l1hrP-2" value="R2 \(\leftarrow\) Cont_TCL&lt;br&gt;K \(\leftarrow\) Num_Array&lt;br&gt;((K)+(R2)) \(\leftarrow\) (Tecla)&lt;br&gt;Cont_TCL \(\leftarrow\) (Cont_TCL) +1" style="whiteSpace=wrap;html=1;" parent="1" vertex="1">
          <mxGeometry x="50" y="915" width="170" height="70" as="geometry" />
        </mxCell>
        <mxCell id="Yu8r70A0D8Q08c6l1hrP-10" style="edgeStyle=orthogonalEdgeStyle;rounded=0;orthogonalLoop=1;jettySize=auto;html=1;exitX=0.5;exitY=1;exitDx=0;exitDy=0;entryX=0.5;entryY=0;entryDx=0;entryDy=0;" parent="1" source="Yu8r70A0D8Q08c6l1hrP-3" target="Yu8r70A0D8Q08c6l1hrP-6" edge="1">
          <mxGeometry relative="1" as="geometry" />
        </mxCell>
        <mxCell id="Yu8r70A0D8Q08c6l1hrP-3" value="Cont_TCL \(\leftarrow\) (Cont_TCL) \(\cdot\) \(\overline{$FF}\)&lt;br&gt;ARRAY_OK \(\leftarrow\) 1" style="whiteSpace=wrap;html=1;" parent="1" vertex="1">
          <mxGeometry x="300" y="830" width="200" height="60" as="geometry" />
        </mxCell>
        <mxCell id="Yu8r70A0D8Q08c6l1hrP-11" style="edgeStyle=orthogonalEdgeStyle;rounded=0;orthogonalLoop=1;jettySize=auto;html=1;exitX=0;exitY=0.5;exitDx=0;exitDy=0;entryX=1;entryY=0.5;entryDx=0;entryDy=0;" parent="1" source="Yu8r70A0D8Q08c6l1hrP-4" target="Yu8r70A0D8Q08c6l1hrP-6" edge="1">
          <mxGeometry relative="1" as="geometry" />
        </mxCell>
        <mxCell id="Yu8r70A0D8Q08c6l1hrP-4" value="Cont_TCL \(\leftarrow\) (Cont_TCL) -1&lt;br&gt;R2 \(\leftarrow\) (Cont_TCL)&lt;br&gt;K \(\leftarrow\) Num_Array&lt;br&gt;((K)+(R2)) \(\leftarrow\) $FF" style="whiteSpace=wrap;html=1;" parent="1" vertex="1">
          <mxGeometry x="570" y="915" width="190" height="70" as="geometry" />
        </mxCell>
        <mxCell id="Yu8r70A0D8Q08c6l1hrP-7" style="edgeStyle=orthogonalEdgeStyle;rounded=0;orthogonalLoop=1;jettySize=auto;html=1;exitX=0.5;exitY=1;exitDx=0;exitDy=0;entryX=0.5;entryY=0;entryDx=0;entryDy=0;" parent="1" source="Yu8r70A0D8Q08c6l1hrP-6" target="AFGi6GBY8aGqDruUX6kk-3" edge="1">
          <mxGeometry relative="1" as="geometry" />
        </mxCell>
        <mxCell id="Yu8r70A0D8Q08c6l1hrP-6" value="Reestablecer" style="ellipse;whiteSpace=wrap;html=1;fillColor=#009900;" parent="1" vertex="1">
          <mxGeometry x="360" y="910" width="80" height="80" as="geometry" />
        </mxCell>
        <mxCell id="Yu8r70A0D8Q08c6l1hrP-16" style="edgeStyle=orthogonalEdgeStyle;rounded=0;orthogonalLoop=1;jettySize=auto;html=1;exitX=0.5;exitY=1;exitDx=0;exitDy=0;entryX=0.5;entryY=0;entryDx=0;entryDy=0;" parent="1" source="Yu8r70A0D8Q08c6l1hrP-12" target="Yu8r70A0D8Q08c6l1hrP-3" edge="1">
          <mxGeometry relative="1" as="geometry" />
        </mxCell>
        <mxCell id="Yu8r70A0D8Q08c6l1hrP-12" value="Finalizar_&lt;br&gt;Array" style="ellipse;whiteSpace=wrap;html=1;fillColor=#3399FF;" parent="1" vertex="1">
          <mxGeometry x="360" y="730" width="80" height="80" as="geometry" />
        </mxCell>
        <mxCell id="Yu8r70A0D8Q08c6l1hrP-15" style="edgeStyle=orthogonalEdgeStyle;rounded=0;orthogonalLoop=1;jettySize=auto;html=1;exitX=0.5;exitY=1;exitDx=0;exitDy=0;" parent="1" source="Yu8r70A0D8Q08c6l1hrP-13" target="Yu8r70A0D8Q08c6l1hrP-2" edge="1">
          <mxGeometry relative="1" as="geometry" />
        </mxCell>
        <mxCell id="Yu8r70A0D8Q08c6l1hrP-13" value="Agregar_&lt;br&gt;Valor" style="ellipse;whiteSpace=wrap;html=1;fillColor=#CC6600;" parent="1" vertex="1">
          <mxGeometry x="95" y="790" width="80" height="80" as="geometry" />
        </mxCell>
        <mxCell id="Yu8r70A0D8Q08c6l1hrP-17" style="edgeStyle=orthogonalEdgeStyle;rounded=0;orthogonalLoop=1;jettySize=auto;html=1;exitX=0.5;exitY=1;exitDx=0;exitDy=0;entryX=0.5;entryY=0;entryDx=0;entryDy=0;" parent="1" source="Yu8r70A0D8Q08c6l1hrP-14" target="Yu8r70A0D8Q08c6l1hrP-4" edge="1">
          <mxGeometry relative="1" as="geometry" />
        </mxCell>
        <mxCell id="Yu8r70A0D8Q08c6l1hrP-14" value="Borrar_&lt;br&gt;Valor" style="ellipse;whiteSpace=wrap;html=1;fillColor=#9933FF;" parent="1" vertex="1">
          <mxGeometry x="625" y="800" width="80" height="80" as="geometry" />
        </mxCell>
        <mxCell id="Yu8r70A0D8Q08c6l1hrP-40" style="edgeStyle=orthogonalEdgeStyle;rounded=0;orthogonalLoop=1;jettySize=auto;html=1;exitX=0.5;exitY=1;exitDx=0;exitDy=0;" parent="1" source="Yu8r70A0D8Q08c6l1hrP-18" target="Yu8r70A0D8Q08c6l1hrP-19" edge="1">
          <mxGeometry relative="1" as="geometry" />
        </mxCell>
        <mxCell id="Yu8r70A0D8Q08c6l1hrP-18" value="R1 \(\leftarrow\) (Cont_TCL)" style="whiteSpace=wrap;html=1;" parent="1" vertex="1">
          <mxGeometry x="354" y="110" width="120" height="40" as="geometry" />
        </mxCell>
        <mxCell id="Yu8r70A0D8Q08c6l1hrP-20" style="edgeStyle=orthogonalEdgeStyle;rounded=0;orthogonalLoop=1;jettySize=auto;html=1;exitX=1;exitY=0.5;exitDx=0;exitDy=0;entryX=0;entryY=0.5;entryDx=0;entryDy=0;" parent="1" source="Yu8r70A0D8Q08c6l1hrP-19" target="Yu8r70A0D8Q08c6l1hrP-22" edge="1">
          <mxGeometry relative="1" as="geometry">
            <mxPoint x="550" y="204.6190476190476" as="targetPoint" />
          </mxGeometry>
        </mxCell>
        <mxCell id="Yu8r70A0D8Q08c6l1hrP-21" value="SI" style="edgeLabel;html=1;align=center;verticalAlign=middle;resizable=0;points=[];" parent="Yu8r70A0D8Q08c6l1hrP-20" vertex="1" connectable="0">
          <mxGeometry x="0.1655" relative="1" as="geometry">
            <mxPoint as="offset" />
          </mxGeometry>
        </mxCell>
        <mxCell id="Yu8r70A0D8Q08c6l1hrP-42" style="edgeStyle=orthogonalEdgeStyle;rounded=0;orthogonalLoop=1;jettySize=auto;html=1;exitX=0.5;exitY=1;exitDx=0;exitDy=0;entryX=0.5;entryY=0;entryDx=0;entryDy=0;" parent="1" source="Yu8r70A0D8Q08c6l1hrP-19" target="Yu8r70A0D8Q08c6l1hrP-41" edge="1">
          <mxGeometry relative="1" as="geometry" />
        </mxCell>
        <mxCell id="Yu8r70A0D8Q08c6l1hrP-19" value="(R1)&amp;nbsp; \(\ge\) (MAX_TCL)" style="shape=hexagon;perimeter=hexagonPerimeter2;whiteSpace=wrap;html=1;fixedSize=1;" parent="1" vertex="1">
          <mxGeometry x="347" y="180" width="134" height="50" as="geometry" />
        </mxCell>
        <mxCell id="Yu8r70A0D8Q08c6l1hrP-28" style="edgeStyle=orthogonalEdgeStyle;rounded=0;orthogonalLoop=1;jettySize=auto;html=1;exitX=0.5;exitY=1;exitDx=0;exitDy=0;entryX=0.5;entryY=0;entryDx=0;entryDy=0;" parent="1" source="Yu8r70A0D8Q08c6l1hrP-22" target="Yu8r70A0D8Q08c6l1hrP-26" edge="1">
          <mxGeometry relative="1" as="geometry" />
        </mxCell>
        <mxCell id="Yu8r70A0D8Q08c6l1hrP-22" value="R1 \(\leftarrow\) $0E" style="whiteSpace=wrap;html=1;" parent="1" vertex="1">
          <mxGeometry x="560" y="187.5" width="120" height="35" as="geometry" />
        </mxCell>
        <mxCell id="Yu8r70A0D8Q08c6l1hrP-30" style="edgeStyle=orthogonalEdgeStyle;rounded=0;orthogonalLoop=1;jettySize=auto;html=1;exitX=0.5;exitY=1;exitDx=0;exitDy=0;entryX=0.5;entryY=0;entryDx=0;entryDy=0;" parent="1" source="Yu8r70A0D8Q08c6l1hrP-25" target="Yu8r70A0D8Q08c6l1hrP-27" edge="1">
          <mxGeometry relative="1" as="geometry" />
        </mxCell>
        <mxCell id="Yu8r70A0D8Q08c6l1hrP-25" value="R1 \(\leftarrow\) $0B" style="whiteSpace=wrap;html=1;" parent="1" vertex="1">
          <mxGeometry x="560" y="320" width="120" height="30" as="geometry" />
        </mxCell>
        <mxCell id="Yu8r70A0D8Q08c6l1hrP-29" style="edgeStyle=orthogonalEdgeStyle;rounded=0;orthogonalLoop=1;jettySize=auto;html=1;exitX=0.5;exitY=1;exitDx=0;exitDy=0;entryX=0.5;entryY=0;entryDx=0;entryDy=0;" parent="1" source="Yu8r70A0D8Q08c6l1hrP-26" target="Yu8r70A0D8Q08c6l1hrP-25" edge="1">
          <mxGeometry relative="1" as="geometry" />
        </mxCell>
        <mxCell id="Yu8r70A0D8Q08c6l1hrP-32" style="edgeStyle=orthogonalEdgeStyle;rounded=0;orthogonalLoop=1;jettySize=auto;html=1;exitX=1;exitY=0.5;exitDx=0;exitDy=0;entryX=0.5;entryY=0;entryDx=0;entryDy=0;" parent="1" source="Yu8r70A0D8Q08c6l1hrP-26" target="Yu8r70A0D8Q08c6l1hrP-31" edge="1">
          <mxGeometry relative="1" as="geometry" />
        </mxCell>
        <mxCell id="Yu8r70A0D8Q08c6l1hrP-36" value="SI" style="edgeLabel;html=1;align=center;verticalAlign=middle;resizable=0;points=[];" parent="Yu8r70A0D8Q08c6l1hrP-32" vertex="1" connectable="0">
          <mxGeometry x="-0.1335" y="4" relative="1" as="geometry">
            <mxPoint as="offset" />
          </mxGeometry>
        </mxCell>
        <mxCell id="Yu8r70A0D8Q08c6l1hrP-26" value="(R1) = (Tecla)" style="shape=hexagon;perimeter=hexagonPerimeter2;whiteSpace=wrap;html=1;fixedSize=1;" parent="1" vertex="1">
          <mxGeometry x="560" y="250" width="120" height="40" as="geometry" />
        </mxCell>
        <mxCell id="Yu8r70A0D8Q08c6l1hrP-34" style="edgeStyle=orthogonalEdgeStyle;rounded=0;orthogonalLoop=1;jettySize=auto;html=1;exitX=0.5;exitY=1;exitDx=0;exitDy=0;" parent="1" source="Yu8r70A0D8Q08c6l1hrP-27" target="Yu8r70A0D8Q08c6l1hrP-33" edge="1">
          <mxGeometry relative="1" as="geometry" />
        </mxCell>
        <mxCell id="Yu8r70A0D8Q08c6l1hrP-37" style="edgeStyle=orthogonalEdgeStyle;rounded=0;orthogonalLoop=1;jettySize=auto;html=1;exitX=1;exitY=0.5;exitDx=0;exitDy=0;entryX=0.5;entryY=0;entryDx=0;entryDy=0;" parent="1" source="Yu8r70A0D8Q08c6l1hrP-27" target="Yu8r70A0D8Q08c6l1hrP-35" edge="1">
          <mxGeometry relative="1" as="geometry" />
        </mxCell>
        <mxCell id="Yu8r70A0D8Q08c6l1hrP-38" value="SI" style="edgeLabel;html=1;align=center;verticalAlign=middle;resizable=0;points=[];" parent="Yu8r70A0D8Q08c6l1hrP-37" vertex="1" connectable="0">
          <mxGeometry x="-0.3617" relative="1" as="geometry">
            <mxPoint as="offset" />
          </mxGeometry>
        </mxCell>
        <mxCell id="Yu8r70A0D8Q08c6l1hrP-27" value="(R1) = (Tecla)" style="shape=hexagon;perimeter=hexagonPerimeter2;whiteSpace=wrap;html=1;fixedSize=1;" parent="1" vertex="1">
          <mxGeometry x="560" y="380" width="120" height="40" as="geometry" />
        </mxCell>
        <mxCell id="Yu8r70A0D8Q08c6l1hrP-31" value="Borrar_&lt;br&gt;Valor" style="ellipse;whiteSpace=wrap;html=1;fillColor=#9933FF;" parent="1" vertex="1">
          <mxGeometry x="710" y="295" width="80" height="80" as="geometry" />
        </mxCell>
        <mxCell id="Yu8r70A0D8Q08c6l1hrP-33" value="Reestablecer" style="ellipse;whiteSpace=wrap;html=1;fillColor=#4D9900;" parent="1" vertex="1">
          <mxGeometry x="580" y="450" width="80" height="80" as="geometry" />
        </mxCell>
        <mxCell id="Yu8r70A0D8Q08c6l1hrP-35" value="Finalizar_&lt;br&gt;Array" style="ellipse;whiteSpace=wrap;html=1;fillColor=#3399FF;" parent="1" vertex="1">
          <mxGeometry x="710" y="450" width="80" height="80" as="geometry" />
        </mxCell>
        <mxCell id="Yu8r70A0D8Q08c6l1hrP-59" style="edgeStyle=orthogonalEdgeStyle;rounded=0;orthogonalLoop=1;jettySize=auto;html=1;exitX=0;exitY=0.5;exitDx=0;exitDy=0;entryX=1;entryY=0.5;entryDx=0;entryDy=0;" parent="1" source="Yu8r70A0D8Q08c6l1hrP-41" target="Yu8r70A0D8Q08c6l1hrP-44" edge="1">
          <mxGeometry relative="1" as="geometry" />
        </mxCell>
        <mxCell id="Yu8r70A0D8Q08c6l1hrP-72" value="NO" style="edgeLabel;html=1;align=center;verticalAlign=middle;resizable=0;points=[];" parent="Yu8r70A0D8Q08c6l1hrP-59" vertex="1" connectable="0">
          <mxGeometry x="0.0167" y="3" relative="1" as="geometry">
            <mxPoint as="offset" />
          </mxGeometry>
        </mxCell>
        <mxCell id="Yu8r70A0D8Q08c6l1hrP-60" style="edgeStyle=orthogonalEdgeStyle;rounded=0;orthogonalLoop=1;jettySize=auto;html=1;exitX=0.5;exitY=1;exitDx=0;exitDy=0;entryX=0.5;entryY=0;entryDx=0;entryDy=0;" parent="1" source="Yu8r70A0D8Q08c6l1hrP-41" target="Yu8r70A0D8Q08c6l1hrP-51" edge="1">
          <mxGeometry relative="1" as="geometry" />
        </mxCell>
        <mxCell id="Yu8r70A0D8Q08c6l1hrP-41" value="(Cont_TCL)&amp;nbsp; =&amp;nbsp; 0" style="shape=hexagon;perimeter=hexagonPerimeter2;whiteSpace=wrap;html=1;fixedSize=1;" parent="1" vertex="1">
          <mxGeometry x="347" y="270" width="134" height="50" as="geometry" />
        </mxCell>
        <mxCell id="Yu8r70A0D8Q08c6l1hrP-43" style="edgeStyle=orthogonalEdgeStyle;rounded=0;orthogonalLoop=1;jettySize=auto;html=1;exitX=0.5;exitY=1;exitDx=0;exitDy=0;entryX=0.5;entryY=0;entryDx=0;entryDy=0;" parent="1" source="Yu8r70A0D8Q08c6l1hrP-44" target="Yu8r70A0D8Q08c6l1hrP-48" edge="1">
          <mxGeometry relative="1" as="geometry" />
        </mxCell>
        <mxCell id="Yu8r70A0D8Q08c6l1hrP-44" value="R1 \(\leftarrow\) $0E" style="whiteSpace=wrap;html=1;" parent="1" vertex="1">
          <mxGeometry x="30" y="277.5" width="120" height="35" as="geometry" />
        </mxCell>
        <mxCell id="Yu8r70A0D8Q08c6l1hrP-45" style="edgeStyle=orthogonalEdgeStyle;rounded=0;orthogonalLoop=1;jettySize=auto;html=1;exitX=0.5;exitY=1;exitDx=0;exitDy=0;entryX=0.5;entryY=0;entryDx=0;entryDy=0;" parent="1" source="Yu8r70A0D8Q08c6l1hrP-46" target="Yu8r70A0D8Q08c6l1hrP-49" edge="1">
          <mxGeometry relative="1" as="geometry" />
        </mxCell>
        <mxCell id="Yu8r70A0D8Q08c6l1hrP-46" value="R1 \(\leftarrow\) $0B" style="whiteSpace=wrap;html=1;" parent="1" vertex="1">
          <mxGeometry x="30" y="402.5" width="120" height="30" as="geometry" />
        </mxCell>
        <mxCell id="Yu8r70A0D8Q08c6l1hrP-47" style="edgeStyle=orthogonalEdgeStyle;rounded=0;orthogonalLoop=1;jettySize=auto;html=1;exitX=0.5;exitY=1;exitDx=0;exitDy=0;entryX=0.5;entryY=0;entryDx=0;entryDy=0;" parent="1" source="Yu8r70A0D8Q08c6l1hrP-48" target="Yu8r70A0D8Q08c6l1hrP-46" edge="1">
          <mxGeometry relative="1" as="geometry" />
        </mxCell>
        <mxCell id="Yu8r70A0D8Q08c6l1hrP-74" style="edgeStyle=orthogonalEdgeStyle;rounded=0;orthogonalLoop=1;jettySize=auto;html=1;exitX=1;exitY=0.5;exitDx=0;exitDy=0;entryX=0.5;entryY=0;entryDx=0;entryDy=0;" parent="1" source="Yu8r70A0D8Q08c6l1hrP-48" target="Yu8r70A0D8Q08c6l1hrP-73" edge="1">
          <mxGeometry relative="1" as="geometry" />
        </mxCell>
        <mxCell id="Yu8r70A0D8Q08c6l1hrP-75" value="SI" style="edgeLabel;html=1;align=center;verticalAlign=middle;resizable=0;points=[];" parent="Yu8r70A0D8Q08c6l1hrP-74" vertex="1" connectable="0">
          <mxGeometry x="-0.1249" y="-1" relative="1" as="geometry">
            <mxPoint as="offset" />
          </mxGeometry>
        </mxCell>
        <mxCell id="Yu8r70A0D8Q08c6l1hrP-48" value="(R1) = (Tecla)" style="shape=hexagon;perimeter=hexagonPerimeter2;whiteSpace=wrap;html=1;fixedSize=1;" parent="1" vertex="1">
          <mxGeometry x="30" y="340" width="120" height="40" as="geometry" />
        </mxCell>
        <mxCell id="Yu8r70A0D8Q08c6l1hrP-70" style="edgeStyle=orthogonalEdgeStyle;rounded=0;orthogonalLoop=1;jettySize=auto;html=1;exitX=1;exitY=0.5;exitDx=0;exitDy=0;entryX=0;entryY=0.5;entryDx=0;entryDy=0;" parent="1" source="Yu8r70A0D8Q08c6l1hrP-49" target="Yu8r70A0D8Q08c6l1hrP-68" edge="1">
          <mxGeometry relative="1" as="geometry" />
        </mxCell>
        <mxCell id="Yu8r70A0D8Q08c6l1hrP-71" value="NO" style="edgeLabel;html=1;align=center;verticalAlign=middle;resizable=0;points=[];" parent="Yu8r70A0D8Q08c6l1hrP-70" vertex="1" connectable="0">
          <mxGeometry x="-0.576" y="-1" relative="1" as="geometry">
            <mxPoint as="offset" />
          </mxGeometry>
        </mxCell>
        <mxCell id="Yu8r70A0D8Q08c6l1hrP-77" style="edgeStyle=orthogonalEdgeStyle;rounded=0;orthogonalLoop=1;jettySize=auto;html=1;exitX=0.5;exitY=1;exitDx=0;exitDy=0;entryX=0.5;entryY=0;entryDx=0;entryDy=0;" parent="1" source="Yu8r70A0D8Q08c6l1hrP-49" target="Yu8r70A0D8Q08c6l1hrP-76" edge="1">
          <mxGeometry relative="1" as="geometry" />
        </mxCell>
        <mxCell id="Yu8r70A0D8Q08c6l1hrP-49" value="(R1) = (Tecla)" style="shape=hexagon;perimeter=hexagonPerimeter2;whiteSpace=wrap;html=1;fixedSize=1;" parent="1" vertex="1">
          <mxGeometry x="30" y="460" width="120" height="40" as="geometry" />
        </mxCell>
        <mxCell id="Yu8r70A0D8Q08c6l1hrP-50" style="edgeStyle=orthogonalEdgeStyle;rounded=0;orthogonalLoop=1;jettySize=auto;html=1;exitX=0.5;exitY=1;exitDx=0;exitDy=0;entryX=0.5;entryY=0;entryDx=0;entryDy=0;" parent="1" source="Yu8r70A0D8Q08c6l1hrP-51" target="Yu8r70A0D8Q08c6l1hrP-55" edge="1">
          <mxGeometry relative="1" as="geometry" />
        </mxCell>
        <mxCell id="Yu8r70A0D8Q08c6l1hrP-51" value="R1 \(\leftarrow\) $0E" style="whiteSpace=wrap;html=1;" parent="1" vertex="1">
          <mxGeometry x="354" y="350" width="120" height="35" as="geometry" />
        </mxCell>
        <mxCell id="Yu8r70A0D8Q08c6l1hrP-52" style="edgeStyle=orthogonalEdgeStyle;rounded=0;orthogonalLoop=1;jettySize=auto;html=1;exitX=0.5;exitY=1;exitDx=0;exitDy=0;entryX=0.5;entryY=0;entryDx=0;entryDy=0;" parent="1" source="Yu8r70A0D8Q08c6l1hrP-53" target="Yu8r70A0D8Q08c6l1hrP-56" edge="1">
          <mxGeometry relative="1" as="geometry" />
        </mxCell>
        <mxCell id="Yu8r70A0D8Q08c6l1hrP-53" value="R1 \(\leftarrow\) $0B" style="whiteSpace=wrap;html=1;" parent="1" vertex="1">
          <mxGeometry x="354" y="482.5" width="120" height="30" as="geometry" />
        </mxCell>
        <mxCell id="Yu8r70A0D8Q08c6l1hrP-54" style="edgeStyle=orthogonalEdgeStyle;rounded=0;orthogonalLoop=1;jettySize=auto;html=1;exitX=0.5;exitY=1;exitDx=0;exitDy=0;entryX=0.5;entryY=0;entryDx=0;entryDy=0;" parent="1" source="Yu8r70A0D8Q08c6l1hrP-55" target="Yu8r70A0D8Q08c6l1hrP-53" edge="1">
          <mxGeometry relative="1" as="geometry" />
        </mxCell>
        <mxCell id="Yu8r70A0D8Q08c6l1hrP-62" style="edgeStyle=orthogonalEdgeStyle;rounded=0;orthogonalLoop=1;jettySize=auto;html=1;exitX=1;exitY=0.5;exitDx=0;exitDy=0;entryX=0.5;entryY=0;entryDx=0;entryDy=0;" parent="1" source="Yu8r70A0D8Q08c6l1hrP-55" target="Yu8r70A0D8Q08c6l1hrP-61" edge="1">
          <mxGeometry relative="1" as="geometry" />
        </mxCell>
        <mxCell id="Yu8r70A0D8Q08c6l1hrP-64" value="SI" style="edgeLabel;html=1;align=center;verticalAlign=middle;resizable=0;points=[];" parent="Yu8r70A0D8Q08c6l1hrP-62" vertex="1" connectable="0">
          <mxGeometry x="-0.6386" y="2" relative="1" as="geometry">
            <mxPoint as="offset" />
          </mxGeometry>
        </mxCell>
        <mxCell id="Yu8r70A0D8Q08c6l1hrP-55" value="(R1) = (Tecla)" style="shape=hexagon;perimeter=hexagonPerimeter2;whiteSpace=wrap;html=1;fixedSize=1;" parent="1" vertex="1">
          <mxGeometry x="354" y="412.5" width="120" height="40" as="geometry" />
        </mxCell>
        <mxCell id="Yu8r70A0D8Q08c6l1hrP-63" style="edgeStyle=orthogonalEdgeStyle;rounded=0;orthogonalLoop=1;jettySize=auto;html=1;exitX=1;exitY=0.5;exitDx=0;exitDy=0;entryX=0;entryY=0.5;entryDx=0;entryDy=0;" parent="1" source="Yu8r70A0D8Q08c6l1hrP-56" target="Yu8r70A0D8Q08c6l1hrP-61" edge="1">
          <mxGeometry relative="1" as="geometry" />
        </mxCell>
        <mxCell id="Yu8r70A0D8Q08c6l1hrP-65" value="SI" style="edgeLabel;html=1;align=center;verticalAlign=middle;resizable=0;points=[];" parent="Yu8r70A0D8Q08c6l1hrP-63" vertex="1" connectable="0">
          <mxGeometry x="-0.1799" relative="1" as="geometry">
            <mxPoint as="offset" />
          </mxGeometry>
        </mxCell>
        <mxCell id="Yu8r70A0D8Q08c6l1hrP-69" style="edgeStyle=orthogonalEdgeStyle;rounded=0;orthogonalLoop=1;jettySize=auto;html=1;exitX=0.5;exitY=1;exitDx=0;exitDy=0;entryX=0.5;entryY=0;entryDx=0;entryDy=0;" parent="1" source="Yu8r70A0D8Q08c6l1hrP-56" target="Yu8r70A0D8Q08c6l1hrP-68" edge="1">
          <mxGeometry relative="1" as="geometry" />
        </mxCell>
        <mxCell id="Yu8r70A0D8Q08c6l1hrP-56" value="(R1) = (Tecla)" style="shape=hexagon;perimeter=hexagonPerimeter2;whiteSpace=wrap;html=1;fixedSize=1;" parent="1" vertex="1">
          <mxGeometry x="354" y="542.5" width="120" height="40" as="geometry" />
        </mxCell>
        <mxCell id="Yu8r70A0D8Q08c6l1hrP-67" style="edgeStyle=orthogonalEdgeStyle;rounded=0;orthogonalLoop=1;jettySize=auto;html=1;exitX=1;exitY=0.5;exitDx=0;exitDy=0;entryX=0.5;entryY=1;entryDx=0;entryDy=0;" parent="1" source="Yu8r70A0D8Q08c6l1hrP-61" target="Yu8r70A0D8Q08c6l1hrP-33" edge="1">
          <mxGeometry relative="1" as="geometry" />
        </mxCell>
        <mxCell id="Yu8r70A0D8Q08c6l1hrP-61" value="" style="ellipse;whiteSpace=wrap;html=1;" parent="1" vertex="1">
          <mxGeometry x="525" y="547.5" width="30" height="30" as="geometry" />
        </mxCell>
        <mxCell id="Yu8r70A0D8Q08c6l1hrP-68" value="Agregar_&lt;br&gt;Valor" style="ellipse;whiteSpace=wrap;html=1;fillColor=#CC6600;" parent="1" vertex="1">
          <mxGeometry x="374" y="610" width="80" height="80" as="geometry" />
        </mxCell>
        <mxCell id="Yu8r70A0D8Q08c6l1hrP-73" value="Borrar_&lt;br&gt;Valor" style="ellipse;whiteSpace=wrap;html=1;fillColor=#9933FF;" parent="1" vertex="1">
          <mxGeometry x="220" y="380" width="80" height="80" as="geometry" />
        </mxCell>
        <mxCell id="Yu8r70A0D8Q08c6l1hrP-76" value="Finalizar_&lt;br&gt;Array" style="ellipse;whiteSpace=wrap;html=1;fillColor=#3399FF;" parent="1" vertex="1">
          <mxGeometry x="50" y="530" width="80" height="80" as="geometry" />
        </mxCell>
      </root>
    </mxGraphModel>
  </diagram>
  <diagram id="qZBkhZMP4HtDJipCce7Y" name="PÃ¡gina-4">
    <mxGraphModel dx="435" dy="508" grid="1" gridSize="10" guides="1" tooltips="1" connect="1" arrows="1" fold="1" page="1" pageScale="1" pageWidth="827" pageHeight="1169" math="1" shadow="0">
      <root>
        <mxCell id="0" />
        <mxCell id="1" parent="0" />
        <mxCell id="JNSHFOjZ4bpX15cOPj_6-12" style="edgeStyle=orthogonalEdgeStyle;rounded=0;orthogonalLoop=1;jettySize=auto;html=1;exitX=0.5;exitY=1;exitDx=0;exitDy=0;exitPerimeter=0;entryX=0.5;entryY=0;entryDx=0;entryDy=0;" parent="1" source="JNSHFOjZ4bpX15cOPj_6-1" target="JNSHFOjZ4bpX15cOPj_6-2" edge="1">
          <mxGeometry relative="1" as="geometry" />
        </mxCell>
        <mxCell id="JNSHFOjZ4bpX15cOPj_6-1" value="Tarea_Borra_TCL" style="strokeWidth=2;html=1;shape=mxgraph.flowchart.terminator;whiteSpace=wrap;" parent="1" vertex="1">
          <mxGeometry x="190" y="80" width="100" height="60" as="geometry" />
        </mxCell>
        <mxCell id="JNSHFOjZ4bpX15cOPj_6-4" style="edgeStyle=orthogonalEdgeStyle;rounded=0;orthogonalLoop=1;jettySize=auto;html=1;exitX=0.5;exitY=1;exitDx=0;exitDy=0;entryX=0.5;entryY=0;entryDx=0;entryDy=0;" parent="1" source="JNSHFOjZ4bpX15cOPj_6-2" target="JNSHFOjZ4bpX15cOPj_6-3" edge="1">
          <mxGeometry relative="1" as="geometry" />
        </mxCell>
        <mxCell id="JNSHFOjZ4bpX15cOPj_6-8" style="edgeStyle=orthogonalEdgeStyle;rounded=0;orthogonalLoop=1;jettySize=auto;html=1;exitX=1;exitY=0.5;exitDx=0;exitDy=0;entryX=0;entryY=0.5;entryDx=0;entryDy=0;" parent="1" source="JNSHFOjZ4bpX15cOPj_6-2" target="JNSHFOjZ4bpX15cOPj_6-6" edge="1">
          <mxGeometry relative="1" as="geometry" />
        </mxCell>
        <mxCell id="JNSHFOjZ4bpX15cOPj_6-10" value="SI" style="edgeLabel;html=1;align=center;verticalAlign=middle;resizable=0;points=[];" parent="JNSHFOjZ4bpX15cOPj_6-8" vertex="1" connectable="0">
          <mxGeometry x="-0.124" y="-3" relative="1" as="geometry">
            <mxPoint as="offset" />
          </mxGeometry>
        </mxCell>
        <mxCell id="JNSHFOjZ4bpX15cOPj_6-2" value="ShortP = 1" style="shape=hexagon;perimeter=hexagonPerimeter2;whiteSpace=wrap;html=1;fixedSize=1;" parent="1" vertex="1">
          <mxGeometry x="190" y="170" width="100" height="50" as="geometry" />
        </mxCell>
        <mxCell id="JNSHFOjZ4bpX15cOPj_6-9" style="edgeStyle=orthogonalEdgeStyle;rounded=0;orthogonalLoop=1;jettySize=auto;html=1;exitX=1;exitY=0.5;exitDx=0;exitDy=0;entryX=0;entryY=0.5;entryDx=0;entryDy=0;" parent="1" source="JNSHFOjZ4bpX15cOPj_6-3" target="JNSHFOjZ4bpX15cOPj_6-7" edge="1">
          <mxGeometry relative="1" as="geometry" />
        </mxCell>
        <mxCell id="JNSHFOjZ4bpX15cOPj_6-11" value="SI" style="edgeLabel;html=1;align=center;verticalAlign=middle;resizable=0;points=[];" parent="JNSHFOjZ4bpX15cOPj_6-9" vertex="1" connectable="0">
          <mxGeometry x="-0.0964" y="-1" relative="1" as="geometry">
            <mxPoint as="offset" />
          </mxGeometry>
        </mxCell>
        <mxCell id="JNSHFOjZ4bpX15cOPj_6-3" value="LongP = 1" style="shape=hexagon;perimeter=hexagonPerimeter2;whiteSpace=wrap;html=1;fixedSize=1;" parent="1" vertex="1">
          <mxGeometry x="190" y="240" width="100" height="50" as="geometry" />
        </mxCell>
        <mxCell id="JNSHFOjZ4bpX15cOPj_6-27" style="edgeStyle=orthogonalEdgeStyle;rounded=0;orthogonalLoop=1;jettySize=auto;html=1;exitX=0.5;exitY=1;exitDx=0;exitDy=0;entryX=0.5;entryY=0;entryDx=0;entryDy=0;" parent="1" source="JNSHFOjZ4bpX15cOPj_6-6" target="JNSHFOjZ4bpX15cOPj_6-7" edge="1">
          <mxGeometry relative="1" as="geometry" />
        </mxCell>
        <mxCell id="JNSHFOjZ4bpX15cOPj_6-31" style="edgeStyle=orthogonalEdgeStyle;rounded=0;orthogonalLoop=1;jettySize=auto;html=1;exitX=1;exitY=0.5;exitDx=0;exitDy=0;entryX=0.5;entryY=0;entryDx=0;entryDy=0;entryPerimeter=0;" parent="1" source="JNSHFOjZ4bpX15cOPj_6-6" target="JNSHFOjZ4bpX15cOPj_6-29" edge="1">
          <mxGeometry relative="1" as="geometry">
            <mxPoint x="640" y="250" as="targetPoint" />
          </mxGeometry>
        </mxCell>
        <mxCell id="JNSHFOjZ4bpX15cOPj_6-6" value="ShortP \(\leftarrow\) 0&lt;br&gt;PORTB.0 \(\leftarrow\) 1" style="whiteSpace=wrap;html=1;" parent="1" vertex="1">
          <mxGeometry x="366" y="175" width="120" height="40" as="geometry" />
        </mxCell>
        <mxCell id="JNSHFOjZ4bpX15cOPj_6-28" style="edgeStyle=orthogonalEdgeStyle;rounded=0;orthogonalLoop=1;jettySize=auto;html=1;exitX=0.5;exitY=1;exitDx=0;exitDy=0;entryX=0.5;entryY=0;entryDx=0;entryDy=0;" parent="1" source="JNSHFOjZ4bpX15cOPj_6-7" target="JNSHFOjZ4bpX15cOPj_6-15" edge="1">
          <mxGeometry relative="1" as="geometry" />
        </mxCell>
        <mxCell id="JNSHFOjZ4bpX15cOPj_6-7" value="LongP \(\leftarrow\) 0&lt;br&gt;PORTB.0 \(\leftarrow\) 0" style="whiteSpace=wrap;html=1;" parent="1" vertex="1">
          <mxGeometry x="366" y="245" width="120" height="40" as="geometry" />
        </mxCell>
        <mxCell id="JNSHFOjZ4bpX15cOPj_6-13" value="RETURN" style="strokeWidth=2;html=1;shape=mxgraph.flowchart.terminator;whiteSpace=wrap;" parent="1" vertex="1">
          <mxGeometry x="190" y="350" width="100" height="60" as="geometry" />
        </mxCell>
        <mxCell id="JNSHFOjZ4bpX15cOPj_6-14" style="edgeStyle=orthogonalEdgeStyle;rounded=0;orthogonalLoop=1;jettySize=auto;html=1;exitX=0.5;exitY=1;exitDx=0;exitDy=0;entryX=0.5;entryY=0;entryDx=0;entryDy=0;entryPerimeter=0;" parent="1" source="JNSHFOjZ4bpX15cOPj_6-3" target="JNSHFOjZ4bpX15cOPj_6-13" edge="1">
          <mxGeometry relative="1" as="geometry" />
        </mxCell>
        <mxCell id="JNSHFOjZ4bpX15cOPj_6-18" style="edgeStyle=orthogonalEdgeStyle;rounded=0;orthogonalLoop=1;jettySize=auto;html=1;exitX=0.5;exitY=1;exitDx=0;exitDy=0;entryX=0.5;entryY=0;entryDx=0;entryDy=0;" parent="1" source="JNSHFOjZ4bpX15cOPj_6-15" target="JNSHFOjZ4bpX15cOPj_6-17" edge="1">
          <mxGeometry relative="1" as="geometry" />
        </mxCell>
        <mxCell id="JNSHFOjZ4bpX15cOPj_6-15" value="J \(\leftarrow\) Num_Array&lt;br&gt;Cont_TCL \(\leftarrow\) $09&lt;br&gt;" style="whiteSpace=wrap;html=1;" parent="1" vertex="1">
          <mxGeometry x="366" y="330" width="120" height="50" as="geometry" />
        </mxCell>
        <mxCell id="JNSHFOjZ4bpX15cOPj_6-22" style="edgeStyle=orthogonalEdgeStyle;rounded=0;orthogonalLoop=1;jettySize=auto;html=1;exitX=0.5;exitY=1;exitDx=0;exitDy=0;entryX=0.5;entryY=0;entryDx=0;entryDy=0;" parent="1" source="JNSHFOjZ4bpX15cOPj_6-16" target="JNSHFOjZ4bpX15cOPj_6-20" edge="1">
          <mxGeometry relative="1" as="geometry" />
        </mxCell>
        <mxCell id="JNSHFOjZ4bpX15cOPj_6-16" value="((J)) \(\leftarrow\) $FF&lt;br&gt;J \(\leftarrow\) (J) + 1&lt;br&gt;Cont_TCL \(\leftarrow\) (Cont_TCL) -1" style="whiteSpace=wrap;html=1;" parent="1" vertex="1">
          <mxGeometry x="341" y="460" width="170" height="60" as="geometry" />
        </mxCell>
        <mxCell id="JNSHFOjZ4bpX15cOPj_6-19" style="edgeStyle=orthogonalEdgeStyle;rounded=0;orthogonalLoop=1;jettySize=auto;html=1;exitX=0.5;exitY=1;exitDx=0;exitDy=0;entryX=0.5;entryY=0;entryDx=0;entryDy=0;" parent="1" source="JNSHFOjZ4bpX15cOPj_6-17" target="JNSHFOjZ4bpX15cOPj_6-16" edge="1">
          <mxGeometry relative="1" as="geometry" />
        </mxCell>
        <mxCell id="JNSHFOjZ4bpX15cOPj_6-17" value="" style="ellipse;whiteSpace=wrap;html=1;" parent="1" vertex="1">
          <mxGeometry x="411" y="410" width="30" height="30" as="geometry" />
        </mxCell>
        <mxCell id="JNSHFOjZ4bpX15cOPj_6-21" style="edgeStyle=orthogonalEdgeStyle;rounded=0;orthogonalLoop=1;jettySize=auto;html=1;exitX=1;exitY=0.5;exitDx=0;exitDy=0;entryX=1;entryY=0.5;entryDx=0;entryDy=0;" parent="1" source="JNSHFOjZ4bpX15cOPj_6-20" target="JNSHFOjZ4bpX15cOPj_6-17" edge="1">
          <mxGeometry relative="1" as="geometry">
            <Array as="points">
              <mxPoint x="536" y="575" />
              <mxPoint x="536" y="425" />
            </Array>
          </mxGeometry>
        </mxCell>
        <mxCell id="JNSHFOjZ4bpX15cOPj_6-23" value="NO" style="edgeLabel;html=1;align=center;verticalAlign=middle;resizable=0;points=[];" parent="JNSHFOjZ4bpX15cOPj_6-21" vertex="1" connectable="0">
          <mxGeometry x="-0.3627" relative="1" as="geometry">
            <mxPoint as="offset" />
          </mxGeometry>
        </mxCell>
        <mxCell id="JNSHFOjZ4bpX15cOPj_6-25" style="edgeStyle=orthogonalEdgeStyle;rounded=0;orthogonalLoop=1;jettySize=auto;html=1;exitX=0.5;exitY=1;exitDx=0;exitDy=0;entryX=0.5;entryY=0;entryDx=0;entryDy=0;" parent="1" source="JNSHFOjZ4bpX15cOPj_6-20" target="JNSHFOjZ4bpX15cOPj_6-24" edge="1">
          <mxGeometry relative="1" as="geometry" />
        </mxCell>
        <mxCell id="JNSHFOjZ4bpX15cOPj_6-20" value="(Cont_TCL) = 0" style="shape=hexagon;perimeter=hexagonPerimeter2;whiteSpace=wrap;html=1;fixedSize=1;" parent="1" vertex="1">
          <mxGeometry x="366" y="550" width="120" height="50" as="geometry" />
        </mxCell>
        <mxCell id="JNSHFOjZ4bpX15cOPj_6-24" value="Cont_TCL \(\leftarrow\) $00&lt;br&gt;ARRAY_OK \(\leftarrow\) 0" style="whiteSpace=wrap;html=1;" parent="1" vertex="1">
          <mxGeometry x="366" y="640" width="120" height="60" as="geometry" />
        </mxCell>
        <mxCell id="JNSHFOjZ4bpX15cOPj_6-29" value="RETURN" style="strokeWidth=2;html=1;shape=mxgraph.flowchart.terminator;whiteSpace=wrap;" parent="1" vertex="1">
          <mxGeometry x="590" y="460" width="100" height="60" as="geometry" />
        </mxCell>
        <mxCell id="JNSHFOjZ4bpX15cOPj_6-33" style="edgeStyle=orthogonalEdgeStyle;rounded=0;orthogonalLoop=1;jettySize=auto;html=1;exitX=1;exitY=0.5;exitDx=0;exitDy=0;entryX=0.5;entryY=1;entryDx=0;entryDy=0;entryPerimeter=0;" parent="1" source="JNSHFOjZ4bpX15cOPj_6-24" target="JNSHFOjZ4bpX15cOPj_6-29" edge="1">
          <mxGeometry relative="1" as="geometry" />
        </mxCell>
      </root>
    </mxGraphModel>
  </diagram>
</mxfile>
